<svg xmlns="http://www.w3.org/2000/svg" viewBox="0 0 430 120" role="img" aria-labelledby="title">
  <title>HexaCyber logo light</title>
  <rect width="430" height="120" rx="16" fill="#F3F1E9"/>
  <path d="M62 14 104 38v48l-42 24-42-24V38L62 14Z" fill="#FFFFFF" stroke="#24C875" stroke-width="6" stroke-linejoin="round"/>
  <path d="M41 58c0-12 8-20 21-20s21 8 21 20v6h-8v-6c0-7-5-12-13-12s-13 5-13 12v6h-8v-6Z" fill="#0B0C0C"/>
  <rect x="35" y="61" width="54" height="33" rx="8" fill="#24C875"/>
  <path d="M62 71a7 7 0 0 0-4 13v5h8v-5a7 7 0 0 0-4-13Z" fill="#07100B"/>
  <text x="125" y="61" fill="#0B0C0C" font-family="Manrope, Inter, Arial, sans-serif" font-size="39" font-weight="900">HexaCyber</text>
  <text x="127" y="87" fill="#146B3D" font-family="Inter, Arial, sans-serif" font-size="14" font-weight="800" letter-spacing="2">PROTECT. SECURE. STAY PRIVATE.</text>
</svg>
